name rise44.9368peak50.754fall52.0217.mot
datacolumns 19
datarows 27
range 10.50330100000000 10.54663100000000
endheader
time	ground_force1_vx	ground_force1_vy	ground_force1_vz	ground_force1_px	ground_force1_py	ground_force1_pz	ground_force2_vx	ground_force2_vy	ground_force2_vz	ground_force2_px	ground_force2_py	ground_force2_pz	ground_torque1_x	ground_torque1_y	ground_torque1_z	ground_torque2_x	ground_torque2_y	ground_torque2_z	
10.50330100000000	-3.70433700000000	697.39760699999999	47.81452200000000	0.24817900000000	0.00000000000000	0.12473400000000	0.00000000000000	0.00000000000000	0.00000000000000	0.00000000000000	0.00000000000000	0.00000000000000	0.00000000000000	23.60179900000000	0.00000000000000	0.00000000000000	0.00000000000000	0.00000000000000	
10.50497000000000	-4.31553700000000	698.35008800000003	47.84220200000000	0.24739200000000	0.00000000000000	0.12467700000000	0.00000000000000	0.00000000000000	0.00000000000000	0.00000000000000	0.00000000000000	0.00000000000000	0.00000000000000	23.72799900000000	0.00000000000000	0.00000000000000	0.00000000000000	0.00000000000000	
10.50663200000000	-4.93675000000000	699.32871899999998	47.87006500000000	0.24660000000000	0.00000000000000	0.12461800000000	0.00000000000000	0.00000000000000	0.00000000000000	0.00000000000000	0.00000000000000	0.00000000000000	0.00000000000000	23.85781000000000	0.00000000000000	0.00000000000000	0.00000000000000	0.00000000000000	
10.50829800000000	-5.56788100000000	700.33399899999995	47.89805300000000	0.24580200000000	0.00000000000000	0.12455900000000	0.00000000000000	0.00000000000000	0.00000000000000	0.00000000000000	0.00000000000000	0.00000000000000	0.00000000000000	23.99111400000000	0.00000000000000	0.00000000000000	0.00000000000000	0.00000000000000	
10.50996300000000	-6.20879900000000	701.36649299999999	47.92612300000000	0.24499700000000	0.00000000000000	0.12449800000000	0.00000000000000	0.00000000000000	0.00000000000000	0.00000000000000	0.00000000000000	0.00000000000000	0.00000000000000	24.12779500000000	0.00000000000000	0.00000000000000	0.00000000000000	0.00000000000000	
10.51162900000000	-6.85933700000000	702.42683299999999	47.95425200000000	0.24418300000000	0.00000000000000	0.12443600000000	0.00000000000000	0.00000000000000	0.00000000000000	0.00000000000000	0.00000000000000	0.00000000000000	0.00000000000000	24.26773500000000	0.00000000000000	0.00000000000000	0.00000000000000	0.00000000000000	
10.51329800000000	-7.51929400000000	703.51570800000002	47.98243600000000	0.24336100000000	0.00000000000000	0.12437300000000	0.00000000000000	0.00000000000000	0.00000000000000	0.00000000000000	0.00000000000000	0.00000000000000	0.00000000000000	24.41081600000000	0.00000000000000	0.00000000000000	0.00000000000000	0.00000000000000	
10.51496100000000	-8.18843200000000	704.63385900000003	48.01068800000000	0.24252900000000	0.00000000000000	0.12431000000000	0.00000000000000	0.00000000000000	0.00000000000000	0.00000000000000	0.00000000000000	0.00000000000000	0.00000000000000	24.55692000000000	0.00000000000000	0.00000000000000	0.00000000000000	0.00000000000000	
10.51663100000000	-8.86647800000000	705.78206799999998	48.03903900000000	0.24168800000000	0.00000000000000	0.12424600000000	0.00000000000000	0.00000000000000	0.00000000000000	0.00000000000000	0.00000000000000	0.00000000000000	0.00000000000000	24.70592700000000	0.00000000000000	0.00000000000000	0.00000000000000	0.00000000000000	
10.51829400000000	-9.55312400000000	706.96115599999996	48.06754200000000	0.24083700000000	0.00000000000000	0.12418100000000	0.00000000000000	0.00000000000000	0.00000000000000	0.00000000000000	0.00000000000000	0.00000000000000	0.00000000000000	24.85771700000000	0.00000000000000	0.00000000000000	0.00000000000000	0.00000000000000	
10.51996600000000	-10.24802700000000	708.17196799999999	48.09626500000000	0.23997500000000	0.00000000000000	0.12411500000000	0.00000000000000	0.00000000000000	0.00000000000000	0.00000000000000	0.00000000000000	0.00000000000000	0.00000000000000	25.01217200000000	0.00000000000000	0.00000000000000	0.00000000000000	0.00000000000000	
10.52163000000000	-10.95081100000000	709.41537000000005	48.12529700000000	0.23910200000000	0.00000000000000	0.12404900000000	0.00000000000000	0.00000000000000	0.00000000000000	0.00000000000000	0.00000000000000	0.00000000000000	0.00000000000000	25.16917100000000	0.00000000000000	0.00000000000000	0.00000000000000	0.00000000000000	
10.52329400000000	-11.66106600000000	710.69223599999998	48.15474300000000	0.23821900000000	0.00000000000000	0.12398300000000	0.00000000000000	0.00000000000000	0.00000000000000	0.00000000000000	0.00000000000000	0.00000000000000	0.00000000000000	25.32859300000000	0.00000000000000	0.00000000000000	0.00000000000000	0.00000000000000	
10.52496100000000	-12.37835000000000	712.00344399999994	48.18473100000000	0.23732400000000	0.00000000000000	0.12391600000000	0.00000000000000	0.00000000000000	0.00000000000000	0.00000000000000	0.00000000000000	0.00000000000000	0.00000000000000	25.49031800000000	0.00000000000000	0.00000000000000	0.00000000000000	0.00000000000000	
10.52663400000000	-13.10218700000000	713.34985900000004	48.21540300000000	0.23641900000000	0.00000000000000	0.12384900000000	0.00000000000000	0.00000000000000	0.00000000000000	0.00000000000000	0.00000000000000	0.00000000000000	0.00000000000000	25.65422600000000	0.00000000000000	0.00000000000000	0.00000000000000	0.00000000000000	
10.52830100000000	-13.83207400000000	714.73233200000004	48.24692100000000	0.23550300000000	0.00000000000000	0.12378200000000	0.00000000000000	0.00000000000000	0.00000000000000	0.00000000000000	0.00000000000000	0.00000000000000	0.00000000000000	25.82019600000000	0.00000000000000	0.00000000000000	0.00000000000000	0.00000000000000	
10.52996100000000	-14.56747600000000	716.15168300000005	48.27946500000000	0.23457600000000	0.00000000000000	0.12371500000000	0.00000000000000	0.00000000000000	0.00000000000000	0.00000000000000	0.00000000000000	0.00000000000000	0.00000000000000	25.98810600000000	0.00000000000000	0.00000000000000	0.00000000000000	0.00000000000000	
10.53162600000000	-15.30783100000000	717.60869600000001	48.31323300000000	0.23363900000000	0.00000000000000	0.12364800000000	0.00000000000000	0.00000000000000	0.00000000000000	0.00000000000000	0.00000000000000	0.00000000000000	0.00000000000000	26.15783600000000	0.00000000000000	0.00000000000000	0.00000000000000	0.00000000000000	
10.53329600000000	-16.05255000000000	719.10410800000000	48.34843900000000	0.23269300000000	0.00000000000000	0.12358000000000	0.00000000000000	0.00000000000000	0.00000000000000	0.00000000000000	0.00000000000000	0.00000000000000	0.00000000000000	26.32926400000000	0.00000000000000	0.00000000000000	0.00000000000000	0.00000000000000	
10.53496400000000	-16.80101800000000	720.63860000000000	48.38531600000000	0.23173700000000	0.00000000000000	0.12351300000000	0.00000000000000	0.00000000000000	0.00000000000000	0.00000000000000	0.00000000000000	0.00000000000000	0.00000000000000	26.50226900000000	0.00000000000000	0.00000000000000	0.00000000000000	0.00000000000000	
10.53662900000000	-17.55259700000000	722.21278299999994	48.42411100000000	0.23077200000000	0.00000000000000	0.12344600000000	0.00000000000000	0.00000000000000	0.00000000000000	0.00000000000000	0.00000000000000	0.00000000000000	0.00000000000000	26.67673000000000	0.00000000000000	0.00000000000000	0.00000000000000	0.00000000000000	
10.53829600000000	-18.30662500000000	723.82719699999996	48.46509000000000	0.22980000000000	0.00000000000000	0.12337900000000	0.00000000000000	0.00000000000000	0.00000000000000	0.00000000000000	0.00000000000000	0.00000000000000	0.00000000000000	26.85252300000000	0.00000000000000	0.00000000000000	0.00000000000000	0.00000000000000	
10.53996300000000	-19.06242100000000	725.48229300000003	48.50853100000000	0.22882000000000	0.00000000000000	0.12331200000000	0.00000000000000	0.00000000000000	0.00000000000000	0.00000000000000	0.00000000000000	0.00000000000000	0.00000000000000	27.02952800000000	0.00000000000000	0.00000000000000	0.00000000000000	0.00000000000000	
10.54162600000000	-19.81928500000000	727.17842800000005	48.55472900000000	0.22783400000000	0.00000000000000	0.12324600000000	0.00000000000000	0.00000000000000	0.00000000000000	0.00000000000000	0.00000000000000	0.00000000000000	0.00000000000000	27.20762000000000	0.00000000000000	0.00000000000000	0.00000000000000	0.00000000000000	
10.54329800000000	-20.57650000000000	728.91585899999995	48.60399200000000	0.22684300000000	0.00000000000000	0.12318000000000	0.00000000000000	0.00000000000000	0.00000000000000	0.00000000000000	0.00000000000000	0.00000000000000	0.00000000000000	27.38667900000000	0.00000000000000	0.00000000000000	0.00000000000000	0.00000000000000	
10.54496700000000	-21.33333300000000	730.69472800000005	48.65664000000000	0.22584700000000	0.00000000000000	0.12311400000000	0.00000000000000	0.00000000000000	0.00000000000000	0.00000000000000	0.00000000000000	0.00000000000000	0.00000000000000	27.56657800000000	0.00000000000000	0.00000000000000	0.00000000000000	0.00000000000000	
10.54663100000000	-22.08903800000000	732.51505899999995	48.71300800000000	0.22484700000000	0.00000000000000	0.12304900000000	0.00000000000000	0.00000000000000	0.00000000000000	0.00000000000000	0.00000000000000	0.00000000000000	0.00000000000000	27.74719500000000	0.00000000000000	0.00000000000000	0.00000000000000	0.00000000000000	
